<?xml version="1.0" encoding="UTF-8"?><svg id="Layer_2" xmlns="http://www.w3.org/2000/svg" xmlns:xlink="http://www.w3.org/1999/xlink" viewBox="0 0 1043.88 1034.24"><defs><filter id="drop-shadow-1" filterUnits="userSpaceOnUse"><feOffset dx="0" dy="4"/><feGaussianBlur result="blur" stdDeviation="8"/><feFlood flood-color="#005cff" flood-opacity=".2"/><feComposite in2="blur" operator="in"/><feComposite in="SourceGraphic"/></filter><filter id="drop-shadow-2" filterUnits="userSpaceOnUse"><feOffset dx="0" dy="4"/><feGaussianBlur result="blur-2" stdDeviation="8"/><feFlood flood-color="#005cff" flood-opacity=".2"/><feComposite in2="blur-2" operator="in"/><feComposite in="SourceGraphic"/></filter><filter id="drop-shadow-3" filterUnits="userSpaceOnUse"><feOffset dx="0" dy="4"/><feGaussianBlur result="blur-3" stdDeviation="8"/><feFlood flood-color="#005cff" flood-opacity=".2"/><feComposite in2="blur-3" operator="in"/><feComposite in="SourceGraphic"/></filter><filter id="drop-shadow-4" filterUnits="userSpaceOnUse"><feOffset dx="0" dy="4"/><feGaussianBlur result="blur-4" stdDeviation="8"/><feFlood flood-color="#005cff" flood-opacity=".2"/><feComposite in2="blur-4" operator="in"/><feComposite in="SourceGraphic"/></filter><filter id="drop-shadow-5" filterUnits="userSpaceOnUse"><feOffset dx="0" dy="4"/><feGaussianBlur result="blur-5" stdDeviation="8"/><feFlood flood-color="#005cff" flood-opacity=".2"/><feComposite in2="blur-5" operator="in"/><feComposite in="SourceGraphic"/></filter><filter id="drop-shadow-6" filterUnits="userSpaceOnUse"><feOffset dx="0" dy="4"/><feGaussianBlur result="blur-6" stdDeviation="8"/><feFlood flood-color="#005cff" flood-opacity=".2"/><feComposite in2="blur-6" operator="in"/><feComposite in="SourceGraphic"/></filter><filter id="drop-shadow-7" filterUnits="userSpaceOnUse"><feOffset dx="0" dy="4"/><feGaussianBlur result="blur-7" stdDeviation="8"/><feFlood flood-color="#005cff" flood-opacity=".2"/><feComposite in2="blur-7" operator="in"/><feComposite in="SourceGraphic"/></filter><filter id="drop-shadow-8" filterUnits="userSpaceOnUse"><feOffset dx="0" dy="4"/><feGaussianBlur result="blur-8" stdDeviation="8"/><feFlood flood-color="#005cff" flood-opacity=".2"/><feComposite in2="blur-8" operator="in"/><feComposite in="SourceGraphic"/></filter><filter id="drop-shadow-9" filterUnits="userSpaceOnUse"><feOffset dx="0" dy="4"/><feGaussianBlur result="blur-9" stdDeviation="8"/><feFlood flood-color="#005cff" flood-opacity=".2"/><feComposite in2="blur-9" operator="in"/><feComposite in="SourceGraphic"/></filter></defs><g id="Layer_1-2"><g style="filter:url(#drop-shadow-1); opacity:.9;"><polygon points="698.1 825.25 613.51 775.49 528.92 725.73 444.33 775.49 359.74 825.25 275.15 875.01 359.74 924.77 444.33 974.53 528.92 1024.29 613.51 974.53 698.1 924.77 782.69 875.01 698.1 825.25" style="fill:#0e9d59; stroke-width:0px;"/><polygon points="528.92 1034.24 275.15 884.96 275.15 875.01 528.92 1024.29 528.92 1034.24" style="fill:#fff; stroke-width:0px;"/><polygon points="528.92 1034.24 782.69 884.96 782.69 875.01 528.92 1024.29 528.92 1034.24" style="stroke-width:0px;"/><polygon points="528.92 1034.24 275.15 884.96 275.15 875.01 528.92 1024.29 528.92 1034.24" style="fill:#0e9d59; opacity:.8; stroke-width:0px;"/><polygon points="528.92 1034.24 782.69 884.96 782.69 875.01 528.92 1024.29 528.92 1034.24" style="fill:#0e9d59; opacity:.8; stroke-width:0px;"/></g><g style="filter:url(#drop-shadow-2); opacity:.9;"><polygon points="698.1 700.42 613.51 650.66 528.92 600.9 444.33 650.66 359.74 700.42 275.15 750.18 359.74 799.94 444.33 849.7 528.92 899.46 613.51 849.7 698.1 799.94 782.69 750.18 698.1 700.42" style="fill:#e21ecf; stroke-width:0px;"/><polygon points="528.92 909.41 275.15 760.13 275.15 750.18 528.92 899.46 528.92 909.41" style="fill:#fff; stroke-width:0px;"/><polygon points="528.92 909.41 782.69 760.13 782.69 750.18 528.92 899.46 528.92 909.41" style="stroke-width:0px;"/><polygon points="528.92 909.41 275.15 760.13 275.15 750.18 528.92 899.46 528.92 909.41" style="fill:#e21ecf; opacity:.8; stroke-width:0px;"/><polygon points="528.92 909.41 782.69 760.13 782.69 750.18 528.92 899.46 528.92 909.41" style="fill:#e21ecf; opacity:.8; stroke-width:0px;"/></g><g style="filter:url(#drop-shadow-3); opacity:.9;"><polygon points="529.06 784.57 275.29 635.29 275.29 625.34 529.06 774.62 529.06 784.57" style="fill:#fff; opacity:.9; stroke-width:0px;"/><polygon points="529.06 784.57 782.84 635.29 782.84 625.34 529.06 774.62 529.06 784.57" style="stroke-width:0px;"/><polygon points="698.25 575.58 613.66 525.82 529.06 476.06 444.47 525.82 359.88 575.58 275.29 625.34 359.88 675.1 444.47 724.86 529.06 774.62 613.66 724.86 698.25 675.1 782.84 625.34 698.25 575.58" style="fill:#fa7b17; stroke-width:0px;"/><polygon points="529.06 784.57 275.29 635.29 275.29 625.34 529.06 774.62 529.06 784.57" style="fill:#fa7b17; opacity:.8; stroke-width:0px;"/><polygon points="529.06 784.57 782.84 635.29 782.84 625.34 529.06 774.62 529.06 784.57" style="fill:#fa7b17; opacity:.8; stroke-width:0px;"/></g><g style="filter:url(#drop-shadow-4); opacity:.9;"><polygon points="698.1 450.75 613.51 400.99 528.92 351.23 444.33 400.99 359.74 450.75 275.15 500.51 359.74 550.27 444.33 600.03 528.92 649.79 613.51 600.03 698.1 550.27 782.69 500.51 698.1 450.75" style="fill:#9d27b0; stroke-width:0px;"/><polygon points="528.92 659.74 275.15 510.46 275.15 500.51 528.92 649.79 528.92 659.74" style="fill:#fff; stroke-width:0px;"/><polygon points="528.92 659.74 782.69 510.46 782.69 500.51 528.92 649.79 528.92 659.74" style="stroke-width:0px;"/><polygon points="528.92 659.74 275.15 510.46 275.15 500.51 528.92 649.79 528.92 659.74" style="fill:#9d27b0; opacity:.8; stroke-width:0px;"/><polygon points="528.92 659.74 782.69 510.46 782.69 500.51 528.92 649.79 528.92 659.74" style="fill:#9d27b0; opacity:.8; stroke-width:0px;"/></g><text transform="translate(1.5 862.42)" style="font-family:Roboto-Bold, Roboto; font-size:28px; font-weight:700;"><tspan x="0" y="0">Linux </tspan><tspan x="75.14" y="0" style="letter-spacing:-.01em;">K</tspan><tspan x="92.59" y="0">ernel</tspan></text><text transform="translate(824.73 704.76)" style="font-family:Roboto-Bold, Roboto; font-size:28px; font-weight:700;"><tspan x="0" y="0">System Se</tspan><tspan x="133.89" y="0" style="letter-spacing:0em;">r</tspan><tspan x="144.39" y="0">vices</tspan><tspan x="38.23" y="33.6">and Daemons</tspan></text><g style="filter:url(#drop-shadow-5); opacity:.9;"><polygon points="698.25 325.91 613.66 276.15 529.06 226.39 444.47 276.15 359.88 325.91 275.29 375.67 359.88 425.43 444.47 475.19 529.06 524.95 613.66 475.19 698.25 425.43 782.84 375.67 698.25 325.91" style="fill:#42a5f6; stroke-width:0px;"/><polygon points="529.06 534.9 275.29 385.62 275.29 375.67 529.06 524.95 529.06 534.9" style="fill:#fff; stroke-width:0px;"/><polygon points="529.06 534.9 782.84 385.62 782.84 375.67 529.06 524.95 529.06 534.9" style="stroke-width:0px;"/><polygon points="529.06 534.9 275.29 385.62 275.29 375.67 529.06 524.95 529.06 534.9" style="fill:#42a5f6; opacity:.8; stroke-width:0px;"/><polygon points="529.06 534.9 782.84 385.62 782.84 375.67 529.06 524.95 529.06 534.9" style="fill:#42a5f6; opacity:.8; stroke-width:0px;"/></g><g style="filter:url(#drop-shadow-6); opacity:.9;"><polygon points="529.06 410.07 275.29 260.79 275.29 250.84 529.06 400.12 529.06 410.07" style="fill:#fff; opacity:.9; stroke-width:0px;"/><polygon points="529.06 410.07 782.84 260.79 782.84 250.84 529.06 400.12 529.06 410.07" style="stroke-width:0px;"/><polygon points="698.25 201.08 613.66 151.32 529.06 101.56 444.47 151.32 359.88 201.08 275.29 250.84 359.88 300.6 444.47 350.36 529.06 400.12 613.66 350.36 698.25 300.6 782.84 250.84 698.25 201.08" style="fill:#00bfa5; stroke-width:0px;"/><polygon points="529.06 410.07 275.29 260.79 275.29 250.84 529.06 400.12 529.06 410.07" style="fill:#00bfa5; opacity:.8; stroke-width:0px;"/><polygon points="529.06 410.07 782.84 260.79 782.84 250.84 529.06 400.12 529.06 410.07" style="fill:#00bfa5; opacity:.8; stroke-width:0px;"/></g><g style="filter:url(#drop-shadow-7); opacity:.9;"><polygon points="637.16 218.11 583.11 186.32 529.06 154.52 475.02 186.32 420.97 218.11 366.92 249.9 420.97 281.69 475.02 313.49 529.06 345.28 583.11 313.49 637.16 281.69 691.21 249.9 637.16 218.11" style="fill:#e84334; stroke-width:0px;"/><polygon points="529.06 351.64 366.92 256.26 366.92 249.9 529.06 345.28 529.06 351.64" style="fill:#fff; stroke-width:0px;"/><polygon points="529.06 351.64 691.21 256.26 691.21 249.9 529.06 345.28 529.06 351.64" style="stroke-width:0px;"/><polygon points="529.06 351.64 366.92 256.26 366.92 249.9 529.06 345.28 529.06 351.64" style="fill:#e84334; opacity:.8; stroke-width:0px;"/><polygon points="529.06 351.64 691.21 256.26 691.21 249.9 529.06 345.28 529.06 351.64" style="fill:#e84334; opacity:.8; stroke-width:0px;"/></g><g style="filter:url(#drop-shadow-8); opacity:.9;"><polygon points="655.39 237.04 643.27 229.9 631.15 222.77 619.03 229.9 606.9 237.04 594.78 244.17 606.9 251.3 619.03 258.43 631.15 265.56 643.27 258.43 655.39 251.3 667.51 244.17 655.39 237.04" style="fill:#fabd05; stroke-width:0px;"/><polygon points="631.15 266.98 594.78 245.59 594.78 244.17 631.15 265.56 631.15 266.98" style="fill:#fff; stroke-width:0px;"/><polygon points="631.15 266.98 667.51 245.59 667.51 244.17 631.15 265.56 631.15 266.98" style="stroke-width:0px;"/><polygon points="631.15 266.98 594.78 245.59 594.78 244.17 631.15 265.56 631.15 266.98" style="fill:#fabd05; opacity:.8; stroke-width:0px;"/><polygon points="631.15 266.98 667.51 245.59 667.51 244.17 631.15 265.56 631.15 266.98" style="fill:#fabd05; opacity:.8; stroke-width:0px;"/></g><text transform="translate(1.5 64.35)" style="font-family:Roboto-Bold, Roboto; font-size:28px; font-weight:700;"><tspan x="0" y="0" style="letter-spacing:-.02em;">A</tspan><tspan x="18.36" y="0">nd</tspan><tspan x="49.82" y="0" style="letter-spacing:-.02em;">r</tspan><tspan x="59.65" y="0">oid </tspan><tspan x="105.59" y="0" style="letter-spacing:-.01em;">F</tspan><tspan x="120.6" y="0" style="letter-spacing:-.02em;">r</tspan><tspan x="130.4" y="0">amework</tspan></text><text transform="translate(824.73 357.02)" style="font-family:Roboto-Bold, Roboto; font-size:28px; font-weight:700;"><tspan x="0" y="0">System Se</tspan><tspan x="133.89" y="0" style="letter-spacing:0em;">r</tspan><tspan x="144.39" y="0">vices</tspan></text><polygon points="529.06 351.64 366.92 256.26 366.92 249.9 529.06 345.28 529.06 351.64" style="fill:#fff; stroke-width:0px;"/><polygon points="529.06 351.64 583.11 319.82 583.11 313.46 529.06 345.28 529.06 351.64" style="stroke-width:0px;"/><polygon points="529.06 351.64 366.92 256.26 366.92 249.9 529.06 345.28 529.06 351.64" style="fill:#3520d1; stroke-width:0px;"/><polygon points="529.06 351.64 583.11 319.82 583.11 313.46 529.06 345.28 529.06 351.64" style="fill:#2816a8; stroke-width:0px;"/><polyline points="583.11 313.49 420.97 218.11 366.92 249.9 420.97 281.69 475.02 313.49 529.06 345.28 583.11 313.49" style="fill:#5335e5; stroke-width:0px;"/><text transform="translate(823.64 492.38)" style="font-family:Roboto-Bold, Roboto; font-size:28px; font-weight:700;"><tspan x="0" y="0" style="letter-spacing:-.02em;">A</tspan><tspan x="18.36" y="0">nd</tspan><tspan x="49.82" y="0" style="letter-spacing:-.02em;">r</tspan><tspan x="59.65" y="0">oid Runtime</tspan></text><text transform="translate(1.5 611.95)" style="font-family:Roboto-Bold, Roboto; font-size:28px; font-weight:700;"><tspan x="0" y="0" style="letter-spacing:0em;">H</tspan><tspan x="20.02" y="0">AL</tspan></text><polygon points="413.91 318.6 349.6 280.77 349.6 278.25 413.91 316.08 413.91 318.6" style="fill:#fff; stroke-width:0px;"/><polygon points="413.91 318.6 442.65 301.58 442.65 299.12 413.91 316.08 413.91 318.6" style="stroke-width:0px;"/><polygon points="413.91 318.6 349.6 280.77 349.6 278.25 413.91 316.08 413.91 318.6" style="fill:#fabd05; opacity:.8; stroke-width:0px;"/><polygon points="413.91 318.6 442.65 301.58 442.65 299.12 413.91 316.08 413.91 318.6" style="fill:#fabd05; opacity:.8; stroke-width:0px;"/><polygon points="427.49 290.21 394.77 270.96 378.34 261.3 371.03 265.59 349.6 278.2 371.03 290.81 392.47 303.42 413.91 316.03 435.34 303.42 442.65 299.12 427.49 290.21" style="fill:#fabd05; stroke-width:0px;"/><polygon points="442.68 295.43 540.09 235.44 540.09 232.92 442.68 292.91 442.68 295.43" style="stroke-width:0px;"/><polygon points="442.68 295.43 540.09 235.44 540.09 232.92 442.68 292.91 442.68 295.43" style="fill:#fabd05; opacity:.8; stroke-width:0px;"/><polygon points="525.98 224.61 493.25 205.36 476.82 195.7 399.8 242.29 377.02 256.58 398.24 269.06 419.4 281.54 440.66 294.06 464.1 280.12 540.09 232.92 525.98 224.61" style="fill:#fabd05; stroke-width:0px;"/><polygon points="376.99 256.53 376.31 262.52 440.56 300.36 440.66 294.06 376.99 256.53" style="fill:#fff; stroke-width:0px;"/><polyline points="440.56 300.36 440.66 294.06 442.68 292.86 442.65 301.58" style="stroke-width:0px;"/><polyline points="440.56 300.36 440.66 294.06 442.68 292.86 442.65 301.58" style="fill:#fabd05; opacity:.8; stroke-width:0px;"/><polygon points="376.99 256.53 376.31 262.52 440.56 300.36 440.66 294.06 376.99 256.53" style="fill:#fabd05; opacity:.8; stroke-width:0px;"/><text transform="translate(884.16 23.95)" style="font-family:Roboto-Bold, Roboto; font-size:28px; font-weight:700;"><tspan x="0" y="0" style="letter-spacing:-.02em;">A</tspan><tspan x="18.36" y="0">nd</tspan><tspan x="49.82" y="0" style="letter-spacing:-.02em;">r</tspan><tspan x="59.65" y="0">oid API</tspan></text><g style="filter:url(#drop-shadow-9); opacity:.9;"><polygon points="578.85 280.66 562.93 271.29 547 261.92 531.07 271.29 515.14 280.66 499.21 290.03 515.14 299.4 531.07 308.77 547 318.14 562.93 308.77 578.85 299.4 594.78 290.03 578.85 280.66" style="fill:#fabd05; stroke-width:0px;"/><polygon points="547 320.01 499.21 291.91 499.21 290.03 547 318.14 547 320.01" style="fill:#fff; stroke-width:0px;"/><polygon points="547 320.01 594.78 291.91 594.78 290.03 547 318.14 547 320.01" style="stroke-width:0px;"/><polygon points="547 320.01 499.21 291.91 499.21 290.03 547 318.14 547 320.01" style="fill:#fabd05; opacity:.8; stroke-width:0px;"/><polygon points="547 320.01 594.78 291.91 594.78 290.03 547 318.14 547 320.01" style="fill:#fabd05; opacity:.8; stroke-width:0px;"/></g><text transform="translate(1.5 206.12)" style="font-family:Roboto-Bold, Roboto; font-size:28px; font-weight:700;"><tspan x="0" y="0">D</tspan><tspan x="18.2" y="0" style="letter-spacing:0em;">e</tspan><tspan x="33.14" y="0">vice</tspan><tspan x="0" y="33.6">Manufactu</tspan><tspan x="135.62" y="33.6" style="letter-spacing:0em;">r</tspan><tspan x="145.62" y="33.6">er </tspan><tspan x="177.95" y="33.6" style="letter-spacing:-.02em;">A</tspan><tspan x="196.31" y="33.6">pps</tspan></text><text transform="translate(836.88 265.56)" style="font-family:Roboto-Bold, Roboto; font-size:28px; font-weight:700;"><tspan x="0" y="0">Privileged </tspan><tspan x="133.67" y="0" style="letter-spacing:-.02em;">A</tspan><tspan x="152.03" y="0">pps</tspan></text><line x1="347.33" y1="875.01" x2="1.5" y2="875.01" style="fill:none; stroke:#000; stroke-linecap:round; stroke-miterlimit:10; stroke-width:3px;"/><line x1="347.33" y1="626.74" x2="1.5" y2="626.74" style="fill:none; stroke:#000; stroke-linecap:round; stroke-miterlimit:10; stroke-width:3px;"/><text transform="translate(864.97 136.95)" style="font-family:Roboto-Bold, Roboto; font-size:28px; font-weight:700;"><tspan x="0" y="0" style="letter-spacing:-.02em;">A</tspan><tspan x="18.36" y="0">nd</tspan><tspan x="49.82" y="0" style="letter-spacing:-.02em;">r</tspan><tspan x="59.65" y="0">oid </tspan><tspan x="105.59" y="0" style="letter-spacing:-.02em;">A</tspan><tspan x="123.95" y="0">pps</tspan></text><line x1="1042.38" y1="290.03" x2="577.95" y2="290.03" style="fill:none; stroke:#000; stroke-linecap:round; stroke-miterlimit:10; stroke-width:3px;"/><text transform="translate(1.5 444.26)" style="font-family:Roboto-Bold, Roboto; font-size:28px; font-weight:700;"><tspan x="0" y="0">System API</tspan></text><line x1="1042.38" y1="752.17" x2="714.12" y2="752.17" style="fill:none; stroke:#000; stroke-linecap:round; stroke-miterlimit:10; stroke-width:3px;"/><line x1="1042.38" y1="368.93" x2="714.12" y2="368.93" style="fill:none; stroke:#000; stroke-linecap:round; stroke-miterlimit:10; stroke-width:3px;"/><line x1="436.06" y1="259.71" x2="1.5" y2="259.71" style="fill:none; stroke:#000; stroke-linecap:round; stroke-miterlimit:10; stroke-width:3px;"/><line x1="1042.38" y1="505.16" x2="714.12" y2="505.16" style="fill:none; stroke:#000; stroke-linecap:round; stroke-miterlimit:10; stroke-width:3px;"/><polyline points="540.09 174.53 833.26 37.22 1042.38 37.22" style="fill:none; stroke:#000; stroke-linecap:round; stroke-miterlimit:10; stroke-width:3px;"/><polyline points="402.18 197.45 210.62 80.8 1.5 80.8" style="fill:none; stroke:#000; stroke-linecap:round; stroke-miterlimit:10; stroke-width:3px;"/><polyline points="631.15 244.17 833.26 150.74 1042.38 150.74" style="fill:none; stroke:#000; stroke-linecap:round; stroke-miterlimit:10; stroke-width:3px;"/><polyline points="475.02 300.36 210.62 458.07 1.5 458.07" style="fill:none; stroke:#000; stroke-linecap:round; stroke-miterlimit:10; stroke-width:3px;"/></g></svg>